<svg id="visual" viewBox="0 0 900 200" width="900" height="200" xmlns="http://www.w3.org/2000/svg" xmlns:xlink="http://www.w3.org/1999/xlink" version="1.1"><rect x="0" y="0" width="900" height="200" fill="#FFFBF5"></rect><path d="M0 98L16.7 93.7C33.3 89.3 66.7 80.7 100 69.7C133.3 58.7 166.7 45.3 200 36C233.3 26.7 266.7 21.3 300 32.2C333.3 43 366.7 70 400 69.8C433.3 69.7 466.7 42.3 500 34.2C533.3 26 566.7 37 600 50.3C633.3 63.7 666.7 79.3 700 72.7C733.3 66 766.7 37 800 31C833.3 25 866.7 42 883.3 50.5L900 59L900 201L883.3 201C866.7 201 833.3 201 800 201C766.7 201 733.3 201 700 201C666.7 201 633.3 201 600 201C566.7 201 533.3 201 500 201C466.7 201 433.3 201 400 201C366.7 201 333.3 201 300 201C266.7 201 233.3 201 200 201C166.7 201 133.3 201 100 201C66.7 201 33.3 201 16.7 201L0 201Z" fill="#c3acd0"></path><path d="M0 96L16.7 106.3C33.3 116.7 66.7 137.3 100 142.3C133.3 147.3 166.7 136.7 200 128C233.3 119.3 266.7 112.7 300 102C333.3 91.3 366.7 76.7 400 79.8C433.3 83 466.7 104 500 119.8C533.3 135.7 566.7 146.3 600 153.3C633.3 160.3 666.7 163.7 700 158.8C733.3 154 766.7 141 800 131.7C833.3 122.3 866.7 116.7 883.3 113.8L900 111L900 201L883.3 201C866.7 201 833.3 201 800 201C766.7 201 733.3 201 700 201C666.7 201 633.3 201 600 201C566.7 201 533.3 201 500 201C466.7 201 433.3 201 400 201C366.7 201 333.3 201 300 201C266.7 201 233.3 201 200 201C166.7 201 133.3 201 100 201C66.7 201 33.3 201 16.7 201L0 201Z" fill="#9575ab"></path><path d="M0 147L16.7 146.8C33.3 146.7 66.7 146.3 100 149C133.3 151.7 166.7 157.3 200 150C233.3 142.7 266.7 122.3 300 123.8C333.3 125.3 366.7 148.7 400 150.7C433.3 152.7 466.7 133.3 500 124.7C533.3 116 566.7 118 600 126C633.3 134 666.7 148 700 149.8C733.3 151.7 766.7 141.3 800 142.2C833.3 143 866.7 155 883.3 161L900 167L900 201L883.3 201C866.7 201 833.3 201 800 201C766.7 201 733.3 201 700 201C666.7 201 633.3 201 600 201C566.7 201 533.3 201 500 201C466.7 201 433.3 201 400 201C366.7 201 333.3 201 300 201C266.7 201 233.3 201 200 201C166.7 201 133.3 201 100 201C66.7 201 33.3 201 16.7 201L0 201Z" fill="#674188"></path></svg>